<svg width="78" height="22" viewBox="0 0 78 22" fill="none" xmlns="http://www.w3.org/2000/svg">
<path d="M0.213379 20.8061H9.10272C13.776 20.8061 16.265 18.3679 16.265 15.056C16.265 11.9778 14.0604 10.1186 11.6933 10.0069V9.80368C13.8573 9.31603 15.4523 7.78199 15.4523 5.33361C15.4523 2.21472 13.1359 0 8.54396 0H0.213379V20.8061ZM4.61233 17.2098V11.6831H8.30014C10.4133 11.6831 11.7238 12.9022 11.7238 14.6192C11.7238 16.1837 10.6571 17.2098 8.19855 17.2098H4.61233ZM4.61233 8.70648V3.55574H7.95473C9.9053 3.55574 11.0127 4.5615 11.0127 6.06507C11.0127 7.71087 9.67164 8.70648 7.87345 8.70648H4.61233Z" fill="#8CB7F5"/>
<path d="M18.5179 20.8061H22.8458V11.9778C22.8458 10.0577 24.2478 8.73696 26.1577 8.73696C26.7571 8.73696 27.58 8.83855 27.9864 8.97062V5.13042C27.6003 5.03899 27.0619 4.97803 26.625 4.97803C24.8776 4.97803 23.4452 5.99396 22.8763 7.92422H22.7137V5.20154H18.5179V20.8061Z" fill="#8CB7F5"/>
<path d="M33.6985 21.1008C36.0047 21.1008 37.4981 20.095 38.26 18.6422H38.3819V20.8061H42.4863V10.2812C42.4863 6.56288 39.3369 4.99835 35.8624 4.99835C32.1238 4.99835 29.6653 6.78638 29.0659 9.63097L33.0686 9.95607C33.3633 8.91982 34.2878 8.15788 35.8421 8.15788C37.3152 8.15788 38.1584 8.8995 38.1584 10.1796V10.2405C38.1584 11.2463 37.0917 11.3784 34.3792 11.6425C31.2908 11.927 28.5173 12.9632 28.5173 16.4478C28.5173 19.5362 30.7219 21.1008 33.6985 21.1008ZM34.9379 18.1139C33.6071 18.1139 32.6521 17.4942 32.6521 16.3056C32.6521 15.0865 33.6579 14.4871 35.1818 14.2737C36.1266 14.1417 37.6708 13.9182 38.1889 13.5728V15.2287C38.1889 16.8644 36.8377 18.1139 34.9379 18.1139Z" fill="#8CB7F5"/>
<path d="M49.6436 11.7847C49.6537 9.7732 50.8525 8.59473 52.5999 8.59473C54.3372 8.59473 55.3836 9.73256 55.3734 11.6425V20.8061H59.7012V10.8704C59.7012 7.23339 57.5678 4.99835 54.3168 4.99835C52.0005 4.99835 50.3243 6.13619 49.6233 7.95469H49.4404V5.20154H45.3157V20.8061H49.6436V11.7847Z" fill="#8CB7F5"/>
<path d="M68.3342 21.0601C70.8537 21.0601 72.1642 19.6074 72.7636 18.307H72.9465V20.8061H77.2134V0H72.8957V7.82262H72.7636C72.1845 6.55272 70.935 4.99835 68.324 4.99835C64.9004 4.99835 62.005 7.66008 62.005 13.0242C62.005 18.246 64.7785 21.0601 68.3342 21.0601ZM69.7057 17.6161C67.5824 17.6161 66.4242 15.7265 66.4242 13.0038C66.4242 10.3015 67.5621 8.44234 69.7057 8.44234C71.8086 8.44234 72.9871 10.2202 72.9871 13.0038C72.9871 15.7875 71.7883 17.6161 69.7057 17.6161Z" fill="#8CB7F5"/>
</svg>
